# xmcd
#
# Track frame offsets: 
#        183
#        17503
#        32050
#        44948
#        59978
#        73440
#        89598
#        102760
#        117618
#        130735
#
# Disc length: 1957 seconds
#
# Revision: 0
# Processed by: cddbd v1.5.2PL0 Copyright (c) Steve Scherf et al.
# Submitted via: ExactAudioCopy v1.0b1
#
DISCID=9d07a30a
DTITLE=Don Williams - The Ultimate
DYEAR=1995
DGENRE=Country
TTITLE0=Heartbeat in the darkness
TTITLE1=Back in my younger years
TTITLE2=True love
TTITLE3=Just as long as i have you
TTITLE4=Lord have mercy on a country boy
TTITLE5=I've been loved by the best
TTITLE6=One good well
TTITLE7=It's who you love
TTITLE8=Too much love
TTITLE9=Standing knee deep
EXTD=
EXTT0=
EXTT1=
EXTT2=
EXTT3=
EXTT4=
EXTT5=
EXTT6=
EXTT7=
EXTT8=
EXTT9=
PLAYORDER=
